<svg xmlns="http://www.w3.org/2000/svg" width="106" height="145.023"><defs><filter id="a" x="2" y="41" width="102" height="102" filterUnits="userSpaceOnUse"><feOffset dy="3"/><feGaussianBlur stdDeviation="2" result="b"/><feFlood flood-opacity=".302"/><feComposite operator="in" in2="b"/><feComposite in="SourceGraphic"/></filter><filter id="d" x="20.999" y="0" width="64" height="104" filterUnits="userSpaceOnUse"><feOffset dy="3"/><feGaussianBlur stdDeviation="4" result="e"/><feFlood flood-opacity=".502"/><feComposite operator="in" in2="e"/><feComposite in="SourceGraphic"/></filter><filter id="g" x="1" y="40.022" width="104" height="104" filterUnits="userSpaceOnUse"><feOffset dy="3"/><feGaussianBlur stdDeviation="5" result="h"/><feFlood flood-opacity=".502"/><feComposite operator="in" in2="h"/><feComposite in="SourceGraphic"/></filter><linearGradient id="c" x1=".5" x2=".5" y2="1" gradientUnits="objectBoundingBox"><stop offset="0" stop-color="#bf2621"/><stop offset="1"/></linearGradient><linearGradient id="f" x1=".146" y1=".854" x2=".854" y2=".146" gradientUnits="objectBoundingBox"><stop offset="0" stop-color="#f19621"/><stop offset="1" stop-color="#ffdc6e"/></linearGradient><radialGradient id="i" cx=".5" cy=".5" r=".5" gradientUnits="objectBoundingBox"><stop offset="0" stop-color="#bf2621"/><stop offset=".818" stop-color="#bf2621"/><stop offset="1" stop-color="#601311"/></radialGradient><style>.e{fill:none}</style></defs><g filter="url(#a)"><g transform="translate(8 44)" stroke="#ffdc6e" stroke-miterlimit="10" stroke-width="2" fill="none"><circle cx="45" cy="45" r="45" stroke="none"/><circle class="e" cx="45" cy="45" r="44"/></g></g><g transform="translate(0 .003)" filter="url(#d)"><path d="M-439.171 637.841l20-80 20 80z" transform="translate(472.17 -548.84)" fill="url(#c)"/></g><g transform="translate(0 .003)" filter="url(#g)"><path d="M-386.208 603.478a36.882 36.882 0 00-26.161-10.836 36.877 36.877 0 00-26.161 10.837 36.878 36.878 0 00-10.837 26.163 36.891 36.891 0 0010.83 26.158 36.883 36.883 0 0026.161 10.837 36.888 36.888 0 0026.168-10.837 36.879 36.879 0 0010.837-26.163 36.878 36.878 0 00-10.837-26.159z" transform="translate(465.37 -540.62)" fill="url(#f)"/></g><path d="M-389.437 652.577a32.9 32.9 0 01-23.335 9.665 32.9 32.9 0 01-23.333-9.665 32.9 32.9 0 01-9.664-23.333 32.9 32.9 0 019.665-23.335 32.894 32.894 0 0123.333-9.665 32.891 32.891 0 0123.332 9.664 32.9 32.9 0 019.667 23.335 32.9 32.9 0 01-9.665 23.334z" transform="translate(465.77 -540.219)" fill="url(#i)"/><path class="e" d="M0 9.023h106v136H0z"/></svg>