<svg xmlns="http://www.w3.org/2000/svg" width="40" height="21"><path d="M18.594 12.397v3.893a4.238 4.238 0 01-.146 1.24 1.969 1.969 0 01-.539.839 5.051 5.051 0 01-1 .72 15.429 15.429 0 01-3.4 1.454A13.22 13.22 0 019.947 21a11.174 11.174 0 01-4.093-.72 8.582 8.582 0 01-3.151-2.093 9.282 9.282 0 01-2-3.324 12.884 12.884 0 01-.7-4.363 13.25 13.25 0 01.678-4.337 8.975 8.975 0 011.99-3.34 8.743 8.743 0 013.2-2.1 11.875 11.875 0 014.28-.726 10.27 10.27 0 013.482.547 7.6 7.6 0 012.459 1.378 6.085 6.085 0 011.422 1.761 3.682 3.682 0 01.479 1.647 1.8 1.8 0 01-.552 1.323 1.812 1.812 0 01-1.322.548 1.732 1.732 0 01-.819-.208 1.864 1.864 0 01-.656-.582 16.545 16.545 0 00-1.236-1.8 4 4 0 00-1.362-1.025 5.013 5.013 0 00-2.187-.416 5.85 5.85 0 00-2.445.49 5.1 5.1 0 00-1.841 1.429 6.527 6.527 0 00-1.171 2.292 10.516 10.516 0 00-.4 3.008 8.48 8.48 0 001.575 5.5 5.361 5.361 0 004.393 1.926 8.591 8.591 0 002.572-.375 12.687 12.687 0 002.439-1.066v-3.3h-3.056a3.241 3.241 0 01-1.669-.347 1.268 1.268 0 01-.564-1.176 1.471 1.471 0 01.472-1.123 1.8 1.8 0 011.282-.444h4.479a5.468 5.468 0 011.4.153 1.58 1.58 0 01.925.678 2.87 2.87 0 01.344 1.582zM30.391 0a10.077 10.077 0 015.2 1.28 8.2 8.2 0 013.289 3.644 12.878 12.878 0 011.117 5.548 14.113 14.113 0 01-.612 4.281 9.362 9.362 0 01-1.834 3.339 8.011 8.011 0 01-3 2.161 10.461 10.461 0 01-4.081.748 10.347 10.347 0 01-4.093-.77 8.1 8.1 0 01-3.018-2.167 9.36 9.36 0 01-1.827-3.367 14.08 14.08 0 01-.619-4.251 13.607 13.607 0 01.646-4.294 9.287 9.287 0 011.867-3.325 8.091 8.091 0 012.976-2.1A10.368 10.368 0 0130.391 0zm5.608 10.445a9.9 9.9 0 00-.691-3.866 5.34 5.34 0 00-1.974-2.473 5.266 5.266 0 00-2.943-.836 5.146 5.146 0 00-2.187.464 4.822 4.822 0 00-1.727 1.35 6.535 6.535 0 00-1.144 2.265 10.617 10.617 0 00-.419 3.1 10.874 10.874 0 00.419 3.13 6.491 6.491 0 001.182 2.32 4.982 4.982 0 001.754 1.378 5.133 5.133 0 002.174.457 5.177 5.177 0 002.785-.79 5.418 5.418 0 002.02-2.439 9.774 9.774 0 00.751-4.059z" fill="#fff"/></svg>